<?xml version="1.0" encoding="UTF-8"?>
<svg width="512px" height="484px" viewBox="0 0 512 484" version="1.1" xmlns="http://www.w3.org/2000/svg" xmlns:xlink="http://www.w3.org/1999/xlink">
    <title>alert</title>
    <g id="Page-1" stroke="none" stroke-width="1" fill="none" fill-rule="evenodd">
        <g id="alert" fill="#E60F6F" fill-rule="nonzero">
            <path d="M501.362,369.95 L320.497,37.474 C291.438,-11.447 220.601,-11.512 191.503,37.474 L10.647,369.95 C-19.059,419.939 16.906,483.241 75.129,483.241 L436.865,483.241 C495.039,483.241 531.068,419.99 501.362,369.95 Z M256,423.241 C239.462,423.241 226,409.779 226,393.241 C226,376.703 239.462,363.241 256,363.241 C272.538,363.241 286,376.703 286,393.241 C286,409.779 272.538,423.241 256,423.241 Z M286,303.241 C286,319.779 272.538,333.241 256,333.241 C239.462,333.241 226,319.779 226,303.241 L226,153.241 C226,136.703 239.462,123.241 256,123.241 C272.538,123.241 286,136.703 286,153.241 L286,303.241 Z" id="Shape"></path>
        </g>
    </g>
</svg>