<?xml version="1.0" encoding="UTF-8"?>
<svg width="26px" height="18px" viewBox="0 0 26 18" version="1.1" xmlns="http://www.w3.org/2000/svg" xmlns:xlink="http://www.w3.org/1999/xlink">
    <title>arrow</title>
    <g id="Page-1" stroke="none" stroke-width="1" fill="none" fill-rule="evenodd">
        <g id="arrow" fill="#FFFFFF" fill-rule="nonzero">
            <path d="M25.8413086,8.30060156 L17.7163086,0.175601562 C17.5607656,0.021125 17.3296094,-0.0259492187 17.1259766,0.0581445312 C16.9233594,0.141730469 16.7916836,0.339574219 16.7916836,0.558542969 L16.7916836,1.64185937 C16.7916836,1.78572266 16.8488125,1.92328906 16.950375,2.02485156 L22.52575,7.60022656 L0.541683594,7.60022656 C0.242277344,7.60027734 0,7.84250391 0,8.14191016 L0,9.22522656 C0,9.52463281 0.242277344,9.76691016 0.541683594,9.76691016 L22.52575,9.76691016 L16.950375,15.3422852 C16.8488125,15.4438477 16.7916836,15.5813633 16.7916836,15.7252773 L16.7916836,16.8085938 C16.7916836,17.0276133 16.9234102,17.2254062 17.1259766,17.3089922 C17.1931602,17.3370234 17.2634922,17.3502773 17.3333164,17.3502773 C17.4740313,17.3502773 17.6126133,17.2952812 17.7163086,17.1915859 L25.8413086,9.06658594 C26.0529141,8.85498047 26.0529141,8.51220703 25.8413086,8.30060156 Z" id="Path"></path>
        </g>
    </g>
</svg>