<?xml version="1.0" encoding="UTF-8"?>
<svg width="24px" height="27px" viewBox="0 0 24 27" version="1.1" xmlns="http://www.w3.org/2000/svg" xmlns:xlink="http://www.w3.org/1999/xlink">
    <title>attach</title>
    <g id="Page-1" stroke="none" stroke-width="1" fill="none" fill-rule="evenodd">
        <g id="attach" fill="#FFFFFF" fill-rule="nonzero">
            <path d="M22.2730477,16.3722885 L20.308365,14.4076058 L11.4675976,5.56724512 C9.83825919,3.95010846 7.20817515,3.95498915 5.58493765,5.57822671 C3.9617001,7.20146421 3.9568194,9.83154825 5.57395606,11.4608866 L14.4143167,20.303891 C14.7758948,20.6656725 15.3623916,20.6656725 15.724173,20.303891 C16.0857511,19.9421096 16.0857511,19.3558162 15.724173,18.9940347 L6.88381234,10.1510304 C5.97966377,9.2468818 5.97966377,7.78125001 6.88381234,6.8771014 C7.78796095,5.97295283 9.25359275,5.97295283 10.1577413,6.8771014 L19.0007456,15.717462 L20.9654284,17.6819414 C22.5931399,19.310263 22.5925298,21.9497018 20.9644116,23.5772099 C19.33609,25.204718 16.6968547,25.2043113 15.0691432,23.5759897 L13.4322804,21.9385168 L4.26430313,12.7705396 L3.60927332,12.1157131 C1.31982102,9.75467734 1.34890183,5.99328906 3.67434924,3.6676383 C6,1.34219089 9.76138829,1.31311007 12.1224241,3.60256238 L21.9452278,13.4255694 C22.1792977,13.659436 22.5203362,13.7507456 22.8398183,13.6651302 C23.1595038,13.5795147 23.4092327,13.3299892 23.4948482,13.0103037 C23.5804637,12.6906182 23.4889507,12.3497831 23.255084,12.1157131 L13.4322804,2.29290945 C10.3560195,-0.769319427 5.38157539,-0.763625284 2.31243223,2.30572123 C-0.756914291,5.37486445 -0.762608486,10.3493086 2.29962039,13.4255694 L12.1224241,23.2483731 L13.7617272,24.885846 C16.1258134,27.1565889 19.8723563,27.1187636 22.1898726,24.8004338 C24.5075922,22.4823075 24.5444007,18.7357646 22.2730477,16.3722885 L22.2730477,16.3722885 Z" id="Path"></path>
        </g>
    </g>
</svg>