<?xml version="1.0" encoding="UTF-8"?>
<svg width="512px" height="462px" viewBox="0 0 512 462" version="1.1" xmlns="http://www.w3.org/2000/svg" xmlns:xlink="http://www.w3.org/1999/xlink">
    <title>calendar</title>
    <g id="Page-1" stroke="none" stroke-width="1" fill="none" fill-rule="evenodd">
        <g id="calendar" fill="#FFFFFF" fill-rule="nonzero">
            <path d="M144,224 L112,224 C103.716,224 97,230.716 97,239 C97,247.284 103.716,254 112,254 L144,254 C152.284,254 159,247.284 159,239 C159,230.716 152.284,224 144,224 Z" id="Path"></path>
            <path d="M144,288 L112,288 C103.716,288 97,294.716 97,303 C97,311.284 103.716,318 112,318 L144,318 C152.284,318 159,311.284 159,303 C159,294.716 152.284,288 144,288 Z" id="Path"></path>
            <path d="M144,352 L112,352 C103.716,352 97,358.716 97,367 C97,375.284 103.716,382 112,382 L144,382 C152.284,382 159,375.284 159,367 C159,358.716 152.284,352 144,352 Z" id="Path"></path>
            <path d="M272,224 L240,224 C231.716,224 225,230.716 225,239 C225,247.284 231.716,254 240,254 L272,254 C280.284,254 287,247.284 287,239 C287,230.716 280.284,224 272,224 Z" id="Path"></path>
            <path d="M272,288 L240,288 C231.716,288 225,294.716 225,303 C225,311.284 231.716,318 240,318 L272,318 C280.284,318 287,311.284 287,303 C287,294.716 280.284,288 272,288 Z" id="Path"></path>
            <path d="M272,352 L240,352 C231.716,352 225,358.716 225,367 C225,375.284 231.716,382 240,382 L272,382 C280.284,382 287,375.284 287,367 C287,358.716 280.284,352 272,352 Z" id="Path"></path>
            <path d="M400,224 L368,224 C359.716,224 353,230.716 353,239 C353,247.284 359.716,254 368,254 L400,254 C408.284,254 415,247.284 415,239 C415,230.716 408.284,224 400,224 Z" id="Path"></path>
            <path d="M400,288 L368,288 C359.716,288 353,294.716 353,303 C353,311.284 359.716,318 368,318 L400,318 C408.284,318 415,311.284 415,303 C415,294.716 408.284,288 400,288 Z" id="Path"></path>
            <path d="M400,352 L368,352 C359.716,352 353,358.716 353,367 C353,375.284 359.716,382 368,382 L400,382 C408.284,382 415,375.284 415,367 C415,358.716 408.284,352 400,352 Z" id="Path"></path>
            <path d="M467,40 L431,40 L431,15 C431,6.716 424.284,0 416,0 C407.716,0 401,6.716 401,15 L401,40 L271,40 L271,15 C271,6.716 264.284,0 256,0 C247.716,0 241,6.716 241,15 L241,40 L111,40 L111,15 C111,6.716 104.284,0 96,0 C87.716,0 81,6.716 81,15 L81,40 L45,40 C20.187,40 0,60.187 0,85 L0,417 C0,441.813 20.187,462 45,462 L467,462 C491.813,462 512,441.813 512,417 C512,407.318 512,93.425 512,85 C512,60.187 491.813,40 467,40 Z M30,85 C30,76.729 36.729,70 45,70 L81,70 L81,95 C81,103.284 87.716,110 96,110 C104.284,110 111,103.284 111,95 L111,70 L241,70 L241,95 C241,103.284 247.716,110 256,110 C264.284,110 271,103.284 271,95 L271,70 L401,70 L401,95 C401,103.284 407.716,110 416,110 C424.284,110 431,103.284 431,95 L431,70 L467,70 C475.271,70 482,76.729 482,85 L482,144 L30,144 L30,85 Z M467,432 L45,432 C36.729,432 30,425.271 30,417 L30,174 L482,174 L482,417 C482,425.271 475.271,432 467,432 Z" id="Shape"></path>
        </g>
    </g>
</svg>