<?xml version="1.0" encoding="UTF-8"?>
<svg width="414px" height="512px" viewBox="0 0 414 512" version="1.1" xmlns="http://www.w3.org/2000/svg" xmlns:xlink="http://www.w3.org/1999/xlink">
    <title>contact</title>
    <g id="Page-1" stroke="none" stroke-width="1" fill="none" fill-rule="evenodd">
        <g id="contact" fill="#FFFFFF" fill-rule="nonzero">
            <path d="M399,0 L47,0 C38.716,0 32,6.716 32,15 L32,81 L15,81 C6.716,81 0,87.716 0,96 C0,104.284 6.716,111 15,111 L32,111 L32,161 L15,161 C6.716,161 0,167.716 0,176 C0,184.284 6.716,191 15,191 L32,191 L32,241 L15,241 C6.716,241 0,247.716 0,256 C0,264.284 6.716,271 15,271 L32,271 L32,321 L15,321 C6.716,321 0,327.716 0,336 C0,344.284 6.716,351 15,351 L32,351 L32,401 L15,401 C6.716,401 0,407.716 0,416 C0,424.284 6.716,431 15,431 L32,431 L32,497 C32,505.284 38.716,512 47,512 L399,512 C407.284,512 414,505.284 414,497 L414,15 C414,6.716 407.284,0 399,0 Z M384,482 L62,482 L62,431 L79,431 C87.284,431 94,424.284 94,416 C94,407.716 87.284,401 79,401 L62,401 L62,351 L79,351 C87.284,351 94,344.284 94,336 C94,327.716 87.284,321 79,321 L62,321 L62,271 L79,271 C87.284,271 94,264.284 94,256 C94,247.716 87.284,241 79,241 L62,241 L62,191 L79,191 C87.284,191 94,184.284 94,176 C94,167.716 87.284,161 79,161 L62,161 L62,111 L79,111 C87.284,111 94,104.284 94,96 C94,87.716 87.284,81 79,81 L62,81 L62,30 L384,30 L384,482 Z" id="Shape"></path>
            <path d="M128,360 C128,368.284 134.716,375 143,375 C151.284,375 158,368.284 158,360 C158,320.184 182.313,279 223,279 C263.687,279 288,320.184 288,360 C288,368.284 294.716,375 303,375 C311.284,375 318,368.284 318,360 C318,321.884 300.602,282.405 268.74,262.244 C284.173,249.21 294,229.735 294,208 C294,168.851 262.149,137 223,137 C183.851,137 152,168.851 152,208 C152,229.735 161.827,249.21 177.26,262.244 C145.399,282.404 128,321.89 128,360 Z M182,208 C182,185.393 200.393,167 223,167 C245.607,167 264,185.393 264,208 C264,230.607 245.607,249 223,249 C200.393,249 182,230.607 182,208 Z" id="Shape"></path>
        </g>
    </g>
</svg>