<?xml version="1.0" encoding="UTF-8"?>
<svg width="24px" height="24px" viewBox="0 0 24 24" version="1.1" xmlns="http://www.w3.org/2000/svg" xmlns:xlink="http://www.w3.org/1999/xlink">
    <title>dollar</title>
    <g id="Page-1" stroke="none" stroke-width="1" fill="none" fill-rule="evenodd">
        <g id="dollar" fill="#2AA65E" fill-rule="nonzero">
            <path d="M11.9259259,0.0740740741 C5.33983333,0.0740740741 0,5.41390741 0,12 C0,18.5860926 5.33983333,23.9259259 11.9259259,23.9259259 C18.5120185,23.9259259 23.8518519,18.5860926 23.8518519,12 C23.8518519,5.41390741 18.5120185,0.0740740741 11.9259259,0.0740740741 Z M12.6712963,17.157963 L12.6712963,17.962963 C12.6712963,18.3744074 12.3373704,18.7083333 11.9259259,18.7083333 C11.5144815,18.7083333 11.1805556,18.3744074 11.1805556,17.962963 L11.1805556,17.1549815 C10.4172963,17.0297593 9.71813889,16.7181944 9.19488889,16.2545741 C8.88630556,15.9802778 8.85947222,15.5106944 9.13227778,15.2021111 C9.40508333,14.8935278 9.87615741,14.8681852 10.1847407,15.1395 C10.6051296,15.5121852 11.2401852,15.7268519 11.9259259,15.7268519 C13.1378981,15.7268519 14.162037,15.0440926 14.162037,14.2361111 C14.162037,13.4281296 13.1378981,12.7453704 11.9259259,12.7453704 C9.87168519,12.7453704 8.19907407,11.4081759 8.19907407,9.76388889 C8.19907407,8.32383333 9.48111111,7.11931481 11.1805556,6.84203704 L11.1805556,6.03703704 C11.1805556,5.62559259 11.5144815,5.29166667 11.9259259,5.29166667 C12.3373704,5.29166667 12.6712963,5.62559259 12.6712963,6.03703704 L12.6712963,6.84501852 C13.4345556,6.97024074 14.133713,7.28180556 14.656963,7.74542593 C14.9640556,8.01972222 14.9938704,8.4907963 14.7195741,8.79788889 C14.4452778,9.10498148 13.9756944,9.13181481 13.6671111,8.8605 C13.2467222,8.48781481 12.6116667,8.27314815 11.9259259,8.27314815 C10.7139537,8.27314815 9.68981481,8.95590741 9.68981481,9.76388889 C9.68981481,10.5718704 10.7139537,11.2546296 11.9259259,11.2546296 C13.9816574,11.2546296 15.6527778,12.5918241 15.6527778,14.2361111 C15.6527778,15.6761667 14.3707407,16.8806852 12.6712963,17.157963 Z" id="Shape"></path>
        </g>
    </g>
</svg>