<?xml version="1.0" encoding="UTF-8"?>
<svg width="25px" height="95px" viewBox="0 0 25 95" version="1.1" xmlns="http://www.w3.org/2000/svg" xmlns:xlink="http://www.w3.org/1999/xlink">
    <title>menu</title>
    <g id="Page-1" stroke="none" stroke-width="1" fill="none" fill-rule="evenodd">
        <g id="menu" fill="#A1AEBE" fill-rule="nonzero">
            <path d="M25,23 L25,2 C25,0.895 24.104,0 23,0 L2,0 C0.896,0 0,0.895 0,2 L0,23 C0,24.105 0.896,25 2,25 L23,25 C24.104,25 25,24.105 25,23 Z" id="Path"></path>
            <path d="M25,58 L25,37 C25,35.895 24.104,35 23,35 L2,35 C0.896,35 0,35.895 0,37 L0,58 C0,59.105 0.896,60 2,60 L23,60 C24.104,60 25,59.105 25,58 Z" id="Path"></path>
            <path d="M25,93 L25,72 C25,70.895 24.104,70 23,70 L2,70 C0.896,70 0,70.895 0,72 L0,93 C0,94.105 0.896,95 2,95 L23,95 C24.104,95 25,94.105 25,93 Z" id="Path"></path>
        </g>
    </g>
</svg>