<?xml version="1.0" encoding="UTF-8"?>
<svg width="100px" height="99px" viewBox="0 0 100 99" version="1.1" xmlns="http://www.w3.org/2000/svg" xmlns:xlink="http://www.w3.org/1999/xlink">
    <title>Group</title>
    <g id="Page-1" stroke="none" stroke-width="1" fill="none" fill-rule="evenodd">
        <g id="Group">
            <rect id="Rectangle" fill="#DEE4E9" x="0" y="0" width="100" height="99"></rect>
            <g id="edit" transform="translate(31.000000, 30.000000)" fill="#899AAE" fill-rule="nonzero">
                <path d="M35.0540998,25.0221222 C34.5316377,25.0221222 34.1081997,25.4566269 34.1081997,25.9927435 L34.1081997,34.6107997 C34.1063521,36.2183914 32.8371463,37.5211473 31.2704991,37.5226638 L4.72950087,37.5226638 C3.16285371,37.5211473 1.89364779,36.2183914 1.89180035,34.6107997 L1.89180035,9.31739257 C1.89364779,7.71018005 3.16285371,6.40742418 4.72950087,6.40552846 L13.1280598,6.40552846 C13.6505219,6.40552846 14.07396,5.97102368 14.07396,5.43490709 C14.07396,4.89916961 13.6505219,4.46428571 13.1280598,4.46428571 L4.72950087,4.46428571 C2.11866864,4.46731891 0.00295593805,6.63832588 0,9.31739257 L0,34.6111789 C0.00295593805,37.2902456 2.11866864,39.4612525 4.72950087,39.4642857 L31.2704991,39.4642857 C33.8813314,39.4612525 35.9970441,37.2902456 36,34.6111789 L36,25.9927435 C36,25.4566269 35.5765618,25.0221222 35.0540998,25.0221222 Z" id="Path"></path>
                <path d="M36.5388388,1.76725694 C34.8013897,0.0299619715 31.9845515,0.0299619715 30.2471022,1.76725694 L12.6092312,19.4035626 C12.4883551,19.524428 12.4010771,19.6742548 12.3555072,19.8387553 L10.0360762,28.2116756 C9.94068836,28.5549641 10.0376209,28.9225803 10.289414,29.1747371 C10.5415932,29.4265078 10.909242,29.5234318 11.252561,29.4284385 L19.6262245,27.1088273 C19.7907395,27.0632614 19.9405796,26.9759912 20.0614557,26.8551257 L37.6989405,9.21843391 C39.4336865,7.47998046 39.4336865,4.66570923 37.6989405,2.92725568 L36.5388388,1.76725694 Z M14.7633748,20.0461185 L29.1986081,5.61178005 L33.8540762,10.2668349 L19.4184566,24.7011734 L14.7633748,20.0461185 Z M13.8334397,21.912002 L17.5527938,25.631412 L12.4080285,27.0566968 L13.8334397,21.912002 Z M36.3009485,7.82056593 L35.2524545,8.86896694 L30.5966003,4.21352594 L31.6454804,3.16512493 C32.6105584,2.20013261 34.1753827,2.20013261 35.1404606,3.16512493 L36.3009485,4.32512366 C37.2644817,5.29127446 37.2644817,6.85480136 36.3009485,7.82056593 L36.3009485,7.82056593 Z" id="Shape"></path>
            </g>
        </g>
    </g>
</svg>