<?xml version="1.0" encoding="UTF-8"?>
<svg width="402px" height="400px" viewBox="0 0 402 400" version="1.1" xmlns="http://www.w3.org/2000/svg" xmlns:xlink="http://www.w3.org/1999/xlink">
    <title>edit</title>
    <g id="Page-1" stroke="none" stroke-width="1" fill="none" fill-rule="evenodd">
        <g id="edit" fill="#FFFFFF" fill-rule="nonzero">
            <path d="M370.589844,250.972656 C365.066406,250.972656 360.589844,255.449219 360.589844,260.972656 L360.589844,349.761719 C360.570312,366.324219 347.152344,379.746094 330.589844,379.761719 L50,379.761719 C33.4375,379.746094 20.019531,366.324219 20,349.761719 L20,89.171875 C20.019531,72.613281 33.4375,59.191406 50,59.171875 L138.789062,59.171875 C144.3125,59.171875 148.789062,54.695312 148.789062,49.171875 C148.789062,43.652344 144.3125,39.171875 138.789062,39.171875 L50,39.171875 C22.398438,39.203125 0.03125,61.570312 0,89.171875 L0,349.765625 C0.03125,377.367188 22.398438,399.734375 50,399.765625 L330.589844,399.765625 C358.191406,399.734375 380.558594,377.367188 380.589844,349.765625 L380.589844,260.972656 C380.589844,255.449219 376.113281,250.972656 370.589844,250.972656 Z" id="Path"></path>
            <path d="M376.628906,13.441406 C359.054688,-4.132812 330.5625,-4.132812 312.988281,13.441406 L134.582031,191.847656 C133.359375,193.070312 132.476562,194.585938 132.015625,196.25 L108.554688,280.949219 C107.589844,284.421875 108.570312,288.140625 111.117188,290.691406 C113.667969,293.238281 117.386719,294.21875 120.859375,293.257812 L205.558594,269.792969 C207.222656,269.332031 208.738281,268.449219 209.960938,267.226562 L388.363281,88.816406 C405.910156,71.230469 405.910156,42.761719 388.363281,25.175781 L376.628906,13.441406 Z M156.371094,198.347656 L302.382812,52.332031 L349.472656,99.421875 L203.457031,245.4375 L156.371094,198.347656 Z M146.964844,217.222656 L184.585938,254.847656 L132.546875,269.265625 L146.964844,217.222656 Z M374.222656,74.675781 L363.617188,85.28125 L316.523438,38.1875 L327.132812,27.582031 C336.894531,17.820312 352.722656,17.820312 362.484375,27.582031 L374.222656,39.316406 C383.96875,49.089844 383.96875,64.90625 374.222656,74.675781 L374.222656,74.675781 Z" id="Shape"></path>
        </g>
    </g>
</svg>