<?xml version="1.0" encoding="UTF-8"?>
<svg width="512px" height="342px" viewBox="0 0 512 342" version="1.1" xmlns="http://www.w3.org/2000/svg" xmlns:xlink="http://www.w3.org/1999/xlink">
    <title>email</title>
    <g id="Page-1" stroke="none" stroke-width="1" fill="none" fill-rule="evenodd">
        <g id="email" fill="#FFFFFF" fill-rule="nonzero">
            <path d="M485.743,0.333 L26.257,0.333 C11.815,0.333 0,12.148 0,26.589 L0,315.41 C0,329.85 11.815,341.667 26.257,341.667 L485.744,341.667 C500.184,341.667 512.001,329.852 512.001,315.41 L512.001,26.589 C512.001,12.148 500.185,0.333 485.743,0.333 Z M475.89,20.024 L271.104,173.626 C267.422,176.428 261.77,178.181 255.999,178.155285 C250.229,178.181 244.578,176.428 240.895,173.626 L36.109,20.024 L475.89,20.024 Z M366.5,183.761 L478.09,321.608 C478.202,321.746 478.339,321.851 478.458,321.976 L33.542,321.976 C33.66,321.845 33.798,321.746 33.91,321.608 L145.5,183.761 C148.919,179.534 148.271,173.337 144.036,169.91 C139.809,166.491 133.612,167.139 130.192,171.367 L19.692,307.868 L19.692,32.332 L229.086,189.378 C236.957,195.24 246.533,197.82 255.998,197.846 C265.45,197.826 275.034,195.246 282.91,189.378 L492.304,32.332 L492.304,307.866 L381.807,171.367 C378.387,167.14 372.184,166.49 367.963,169.91 C363.729,173.329 363.079,179.534 366.5,183.761 Z" id="Shape"></path>
        </g>
    </g>
</svg>