<?xml version="1.0" encoding="UTF-8"?>
<svg width="24px" height="24px" viewBox="0 0 24 24" version="1.1" xmlns="http://www.w3.org/2000/svg" xmlns:xlink="http://www.w3.org/1999/xlink">
    <title>euro</title>
    <g id="Page-1" stroke="none" stroke-width="1" fill="none" fill-rule="evenodd">
        <g id="euro" fill="#3060BF" fill-rule="nonzero">
            <path d="M12,0 C5.373,0 0,5.373 0,12 C0,18.627 5.373,24 12,24 C18.627,24 24,18.627 24,12 C24,5.373 18.627,0 12,0 Z M12.75,9.75 C13.164,9.75 13.5,10.086 13.5,10.5 C13.5,10.914 13.164,11.25 12.75,11.25 L9.063,11.25 C9.0285,11.4945 9,11.7435 9,12 C9,12.2565 9.0285,12.5055 9.063,12.75 L12,12.75 C12.414,12.75 12.75,13.086 12.75,13.5 C12.75,13.914 12.414,14.25 12,14.25 L9.522,14.25 C10.1715,15.588 11.3685,16.5 12.75,16.5 C13.404,16.5 14.019,16.3065 14.5785,15.9255 C14.919,15.6945 15.387,15.78 15.6195,16.122 C15.852,16.464 15.765,16.9305 15.4215,17.1645 C14.6205,17.7105 13.6965,18 12.75,18 C10.5525,18 8.6715,16.4445 7.89,14.25 L6.75,14.25 C6.336,14.25 6,13.914 6,13.5 C6,13.086 6.336,12.75 6.75,12.75 L7.566,12.75 C7.539,12.501 7.5,12.2565 7.5,12 C7.5,11.7435 7.539,11.499 7.566,11.25 L6.75,11.25 C6.336,11.25 6,10.914 6,10.5 C6,10.086 6.336,9.75 6.75,9.75 L7.89,9.75 C8.6715,7.5555 10.5525,6 12.75,6 C13.6965,6 14.6205,6.2895 15.4215,6.8355 C15.765,7.0695 15.852,7.536 15.6195,7.878 C15.387,8.223 14.9175,8.307 14.5785,8.0745 C14.019,7.6935 13.404,7.5 12.75,7.5 C11.3685,7.5 10.1715,8.412 9.522,9.75 L12.75,9.75 Z" id="Shape"></path>
        </g>
    </g>
</svg>