<?xml version="1.0" encoding="UTF-8"?>
<svg width="20px" height="12px" viewBox="0 0 20 12" version="1.1" xmlns="http://www.w3.org/2000/svg" xmlns:xlink="http://www.w3.org/1999/xlink">
    <title>eye</title>
    <g id="Page-1" stroke="none" stroke-width="1" fill="none" fill-rule="evenodd">
        <g id="320" transform="translate(-216.000000, -390.000000)" fill="#A5B1BF" fill-rule="nonzero">
            <g id="eye" transform="translate(216.000000, 390.000000)">
                <path d="M19.925625,5.62253906 C19.768125,5.39335938 15.983125,0.025859375 9.99980469,0.025859375 C4.865625,0.025859375 0.290625,5.36253906 0.098125,5.59003906 C-0.0326953125,5.74503906 -0.0326953125,5.97253906 0.098125,6.12835938 C0.290625,6.35585938 4.865625,11.6925391 9.99980469,11.6925391 C15.1339844,11.6925391 19.7089453,6.35585938 19.9014453,6.12835938 C20.0223047,5.98503906 20.033125,5.77753906 19.925625,5.62253906 Z M9.99980469,10.8592188 C5.88398438,10.8592188 1.970625,6.93421875 0.976484375,5.85921875 C1.96898437,4.78339844 5.87816406,0.85921875 9.99980469,0.85921875 C14.815625,0.85921875 18.2148047,4.77839844 19.0448047,5.83671875 C18.0864453,6.87753906 14.150625,10.8592188 9.99980469,10.8592188 Z" id="Shape"></path>
                <path d="M9.99980469,2.52585938 C8.16148438,2.52585938 6.66648438,4.02085938 6.66648438,5.85917969 C6.66648438,7.6975 8.16148438,9.1925 9.99980469,9.1925 C11.838125,9.1925 13.333125,7.6975 13.333125,5.85917969 C13.333125,4.02085937 11.838125,2.52585938 9.99980469,2.52585938 Z M9.99980469,8.35921875 C8.62148438,8.35921875 7.49980469,7.23753906 7.49980469,5.85921875 C7.49980469,4.48089844 8.62148438,3.35921875 9.99980469,3.35921875 C11.378125,3.35921875 12.4998047,4.48089844 12.4998047,5.85921875 C12.4998047,7.23753906 11.378125,8.35921875 9.99980469,8.35921875 Z" id="Shape"></path>
            </g>
        </g>
    </g>
</svg>