<?xml version="1.0" encoding="UTF-8"?>
<svg width="513px" height="384px" viewBox="0 0 513 384" version="1.1" xmlns="http://www.w3.org/2000/svg" xmlns:xlink="http://www.w3.org/1999/xlink">
    <title>hide</title>
    <g id="Page-1" stroke="none" stroke-width="1" fill="none" fill-rule="evenodd">
        <g id="320" transform="translate(-104.000000, -306.000000)" fill="#A5B1BF" fill-rule="nonzero">
            <g id="hide" transform="translate(104.000000, 306.000000)">
                <path d="M316.332,131.662 C312.172,127.502 305.409,127.502 301.249,131.662 C297.089,135.822 297.089,142.606 301.249,146.745 C313.324,158.82 320.001,174.884 320.001,191.993 C320.001,227.278 291.286,255.993 256.001,255.993 C238.892,255.993 222.828,249.337 210.753,237.241 C206.593,233.081 199.83,233.081 195.67,237.241 C191.51,241.38 191.51,248.164 195.67,252.324 C211.755,268.452 233.195,277.327 256.001,277.327 C303.062,277.327 341.334,239.055 341.334,191.994 C341.334,169.187 332.46,147.747 316.332,131.662 Z" id="Path"></path>
                <path d="M270.87,108.131 C266.027,107.278 261.078,106.659 256.001,106.659 C208.94,106.659 170.668,144.931 170.668,191.992 C170.668,197.069 171.287,202.019 172.161,206.861 C173.078,212.024 177.58,215.672 182.636,215.672 C183.255,215.672 183.873,215.629 184.513,215.501 C190.294,214.477 194.177,208.93 193.153,203.149 C192.492,199.522 192.001,195.832 192.001,191.992 C192.001,156.707 220.716,127.992 256.001,127.992 C259.841,127.992 263.532,128.483 267.158,129.123 C272.833,130.275 278.486,126.264 279.51,120.483 C280.534,114.702 276.652,109.155 270.87,108.131 Z" id="Path"></path>
                <path d="M509.462,185.102 C507.051,182.243 449.345,114.894 369.75,73.657 C364.587,70.948 358.081,72.996 355.371,78.244 C352.662,83.471 354.71,89.913 359.958,92.623 C421.27,124.367 470.251,173.903 486.998,191.994 C461.569,219.535 361.494,319.994 256.001,319.994 C220.204,319.994 184.129,311.354 148.737,294.287 C143.489,291.706 137.068,293.946 134.508,299.258 C131.927,304.549 134.167,310.927 139.479,313.487 C177.772,331.983 216.983,341.327 256.002,341.327 C387.437,341.327 504.557,204.708 509.485,198.884 C512.854,194.915 512.833,189.091 509.462,185.102 Z" id="Path"></path>
                <path d="M325.996,54.947 C301.719,46.776 278.167,42.659 256.001,42.659 C124.566,42.659 7.446,179.278 2.518,185.102 C-0.597,188.771 -0.853,194.105 1.921,198.094 C3.393,200.206 38.657,250.275 99.777,290.873 C101.59,292.089 103.617,292.665 105.665,292.665 C109.1,292.665 112.492,291.001 114.54,287.865 C117.804,282.98 116.46,276.345 111.553,273.102 C66.668,243.257 35.948,207.225 24.449,192.569 C49.004,165.902 149.74,63.993 256.001,63.993 C275.862,63.993 297.132,67.748 319.19,75.15 C324.779,77.155 330.838,74.062 332.694,68.451 C334.572,62.862 331.585,56.825 325.996,54.947 Z" id="Path"></path>
                <path d="M444.865,3.128 C440.705,-1.032 433.942,-1.032 429.782,3.128 L67.116,365.795 C62.956,369.955 62.956,376.718 67.116,380.878 C69.207,382.947 71.937,383.993 74.668,383.993 C77.399,383.993 80.129,382.948 82.199,380.878 L444.865,18.211 C449.025,14.051 449.025,7.288 444.865,3.128 Z" id="Path"></path>
            </g>
        </g>
    </g>
</svg>