<?xml version="1.0" encoding="UTF-8"?>
<svg width="15px" height="13px" viewBox="0 0 15 13" version="1.1" xmlns="http://www.w3.org/2000/svg" xmlns:xlink="http://www.w3.org/1999/xlink">
    <title>filter</title>
    <g id="Page-1" stroke="none" stroke-width="1" fill="none" fill-rule="evenodd">
        <g id="filter" fill="#899AAE" fill-rule="nonzero">
            <path d="M13.6179801,1.19906534 L5.1805,1.19906534 C4.94853125,0.510102273 4.29686932,0.0123352273 3.53068182,0.0123352273 C2.76449432,0.0123352273 2.11283239,0.510102273 1.88086364,1.19906534 L0.563838068,1.19906534 C0.257894886,1.19906534 0.00986079545,1.44709943 0.00986079545,1.75304261 C0.00986079545,2.0589858 0.257894886,2.30701989 0.563838068,2.30701989 L1.88090057,2.30701989 C2.11286932,2.99598295 2.76453125,3.49375 3.53071875,3.49375 C4.29690625,3.49375 4.94856818,2.99598295 5.18053693,2.30701989 L13.618017,2.30701989 C13.9239602,2.30701989 14.1719943,2.0589858 14.1719943,1.75304261 C14.1719943,1.44709943 13.9239602,1.19906534 13.6179801,1.19906534 Z M3.53068182,2.38579545 C3.18178693,2.38579545 2.89792898,2.1019375 2.89792898,1.75304261 C2.89792898,1.40414773 3.18178693,1.12028977 3.53068182,1.12028977 C3.8795767,1.12028977 4.16343466,1.40414773 4.16343466,1.75304261 C4.16343466,2.1019375 3.8795767,2.38579545 3.53068182,2.38579545 Z" id="Shape"></path>
            <path d="M13.6179801,5.94602273 L12.3009176,5.94602273 C12.0689489,5.25705966 11.41725,4.75929261 10.6510994,4.75929261 C9.88494886,4.75929261 9.23328693,5.25705966 9.00131818,5.94602273 L0.563838068,5.94602273 C0.257894886,5.94602273 0.00986079545,6.19405682 0.00986079545,6.5 C0.00986079545,6.80594318 0.257894886,7.05397727 0.563838068,7.05397727 L9.00131818,7.05397727 C9.23328693,7.74294034 9.8849858,8.24070739 10.6511364,8.24070739 C11.4172869,8.24070739 12.0689858,7.74294034 12.3009545,7.05397727 L13.618017,7.05397727 C13.9239602,7.05397727 14.1719943,6.80594318 14.1719943,6.5 C14.1719943,6.19405682 13.9239602,5.94602273 13.6179801,5.94602273 Z M10.6511364,7.13275284 C10.3022415,7.13275284 10.0183835,6.84889489 10.0183835,6.5 C10.0183835,6.15110511 10.3022415,5.86724716 10.6511364,5.86724716 C11.0000312,5.86724716 11.2838892,6.15110511 11.2838892,6.5 C11.2838892,6.84889489 11.0000312,7.13275284 10.6511364,7.13275284 Z" id="Shape"></path>
            <path d="M13.6179801,10.6929801 L7.55399716,10.6929801 C7.32202841,10.004017 6.67036648,9.50625 5.90417898,9.50625 C5.13799148,9.50625 4.48632955,10.004017 4.2543608,10.6929801 L0.563838068,10.6929801 C0.257894886,10.6929801 0.00986079545,10.9410142 0.00986079545,11.2469574 C0.00986079545,11.5529006 0.257894886,11.8009347 0.563838068,11.8009347 L4.2543608,11.8009347 C4.48632955,12.4898977 5.13799148,12.9876648 5.90417898,12.9876648 C6.67036648,12.9876648 7.32202841,12.4898977 7.55399716,11.8009347 L13.618017,11.8009347 C13.9239602,11.8009347 14.1719943,11.5529006 14.1719943,11.2469574 C14.1719943,10.9410142 13.9239602,10.6929801 13.6179801,10.6929801 Z M5.90417898,11.8797472 C5.55528409,11.8797472 5.27142614,11.5958892 5.27142614,11.2469943 C5.27142614,10.8980994 5.55528409,10.6142415 5.90417898,10.6142415 C6.25307386,10.6142415 6.53693182,10.8980625 6.53693182,11.2469574 C6.53693182,11.5958523 6.25307386,11.8797472 5.90417898,11.8797472 L5.90417898,11.8797472 Z" id="Shape"></path>
        </g>
    </g>
</svg>