<?xml version="1.0" encoding="UTF-8"?>
<svg width="61px" height="46px" viewBox="0 0 61 46" version="1.1" xmlns="http://www.w3.org/2000/svg" xmlns:xlink="http://www.w3.org/1999/xlink">
    <title>list</title>
    <g id="Page-1" stroke="none" stroke-width="1" fill="none" fill-rule="evenodd">
        <g id="list" fill="#FFFFFF" fill-rule="nonzero">
            <path d="M57.124,44.893 L16.92,44.893 C15.263,44.893 13.92,43.55 13.92,41.893 C13.92,40.236 15.263,38.893 16.92,38.893 L57.123,38.893 C58.78,38.893 60.123,40.236 60.123,41.893 C60.123,43.55 58.781,44.893 57.124,44.893 Z" id="Path"></path>
            <path d="M57.124,26.062 L16.92,26.062 C15.263,26.062 13.92,24.719 13.92,23.062 C13.92,21.405 15.263,20.062 16.92,20.062 L57.123,20.062 C58.78,20.062 60.1230006,21.405 60.1230006,23.062 C60.124,24.719 58.781,26.062 57.124,26.062 Z" id="Path"></path>
            <path d="M57.124,7.231 L16.92,7.231 C15.263,7.231 13.92,5.888 13.92,4.231 C13.92,2.574 15.263,1.231 16.92,1.231 L57.123,1.231 C58.78,1.231 60.123,2.574 60.123,4.231 C60.123,5.888 58.781,7.231 57.124,7.231 Z" id="Path"></path>
            <circle id="Oval" cx="4.029" cy="4.463" r="4.029"></circle>
            <circle id="Oval" cx="4.029" cy="23.062" r="4.029"></circle>
            <circle id="Oval" cx="4.029" cy="41.661" r="4.029"></circle>
        </g>
    </g>
</svg>