<?xml version="1.0" encoding="UTF-8"?>
<svg width="18px" height="20px" viewBox="0 0 18 20" version="1.1" xmlns="http://www.w3.org/2000/svg" xmlns:xlink="http://www.w3.org/1999/xlink">
    <title>user-profile</title>
    <g id="Page-1" stroke="none" stroke-width="1" fill="none" fill-rule="evenodd">
        <g id="user-profile" fill="#0472DE" fill-rule="nonzero">
            <path d="M17.18,19.738 L15.18,19.738 C15.18,16.364 12.35,13.62 8.869,13.62 C5.388,13.62 2.559,16.365 2.559,19.738 L0.559,19.738 C0.559,15.26 4.288,11.62 8.87,11.62 C13.451,11.62 17.18,15.26 17.18,19.738 Z" id="Path"></path>
            <path d="M8.87,10.97 C5.847,10.97 3.3859997,8.508 3.3859997,5.485 C3.385,2.461 5.846,0 8.87,0 C11.895,0 14.356,2.46 14.356,5.485 C14.356,8.51 11.895,10.97 8.87,10.97 Z M8.87,2 C6.948,2 5.385,3.563 5.385,5.485 C5.385,7.407 6.948,8.97 8.87,8.97 C10.793,8.97 12.356,7.407 12.356,5.485 C12.356,3.563 10.791,2 8.87,2 Z" id="Shape"></path>
        </g>
    </g>
</svg>