<?xml version="1.0" encoding="UTF-8"?>
<svg width="514px" height="513px" viewBox="0 0 514 513" version="1.1" xmlns="http://www.w3.org/2000/svg" xmlns:xlink="http://www.w3.org/1999/xlink">
    <title>logout</title>
    <g id="Page-1" stroke="none" stroke-width="1" fill="none" fill-rule="evenodd">
        <g id="logout" transform="translate(0.000000, 0.000000)" fill="#FFFFFF" fill-rule="nonzero">
            <path d="M362.207436,392.767123 L362.207436,432.845401 C362.207436,477.04501 326.250489,513.001957 282.050881,513.001957 L80.6575342,513.001957 C36.4579259,513.001957 0.500978474,477.04501 0.500978474,432.845401 L0.500978474,80.1565558 C0.500978474,35.9569474 36.4579259,0 80.6575342,0 L282.050881,0 C326.250489,0 362.207436,35.9569474 362.207436,80.1565558 L362.207436,120.234834 C362.207436,131.303327 353.236791,140.273973 342.168297,140.273973 C331.099804,140.273973 322.129159,131.303327 322.129159,120.234834 L322.129159,80.1565558 C322.129159,58.0587079 304.148728,40.0782779 282.050881,40.0782779 L80.6575342,40.0782779 C58.5596864,40.0782779 40.5792564,58.0587079 40.5792564,80.1565558 L40.5792564,432.845401 C40.5792564,454.943249 58.5596864,472.923679 80.6575342,472.923679 L282.050881,472.923679 C304.148728,472.923679 322.129159,454.943249 322.129159,432.845401 L322.129159,392.767123 C322.129159,381.69863 331.099804,372.727984 342.168297,372.727984 C353.236791,372.727984 362.207436,381.69863 362.207436,392.767123 Z M498.829746,222.078278 L453.956947,177.205479 C446.129158,169.377691 433.440313,169.377691 425.616438,177.205479 C417.788649,185.029354 417.788649,197.718199 425.616438,205.542074 L457.534247,237.463796 L216.923679,237.463796 C205.855186,237.463796 196.88454,246.434442 196.88454,257.502935 C196.88454,268.571429 205.855186,277.542074 216.923679,277.542074 L457.534247,277.542074 L425.616438,309.463796 C417.788649,317.287671 417.788649,329.976516 425.616438,337.800391 C429.530332,341.714286 434.657534,343.671233 439.784736,343.671233 C444.915851,343.671233 450.043052,341.714286 453.956947,337.800391 L498.829746,292.927593 C518.363992,273.393346 518.363992,241.612524 498.829746,222.078278 Z" id="Shape"></path>
        </g>
    </g>
</svg>