<?xml version="1.0" encoding="UTF-8"?>
<svg width="105px" height="79px" viewBox="0 0 105 79" version="1.1" xmlns="http://www.w3.org/2000/svg" xmlns:xlink="http://www.w3.org/1999/xlink">
    <title>logo_m-contrac</title>
    <g id="Page-1" stroke="none" stroke-width="1" fill="none" fill-rule="evenodd">
        <g id="logo_m-contrac" fill="#14355D">
            <path d="M0.0999,78.2759 L2.859,78.2759 L2.859,72.2329 L5.4438,76.3422 L5.5018,76.3422 L8.1013,72.2027 L8.1013,78.2759 L10.9038,78.2759 L10.9038,67.7006 L7.9269,67.7006 L5.5018,71.7945 L3.077,67.7006 L0.0999,67.7006 L0.0999,78.2759 L0.0999,78.2759 Z M50.6811,0.3941 L51.1337,0.3941 L79.5838,28.8521 L79.5858,29.3045 L51.1334,57.776 L50.6808,57.776 L22.2262,29.3045 L22.2282,28.8521 L50.6806,0.3941 L50.6811,0.3941 Z M54.5423,37.5901 L52.3533,35.3974 L53.2973,34.4534 L55.4911,36.6427 L54.5423,37.5901 Z M56.3921,35.7428 L54.1983,33.5524 L55.1632,32.5875 L57.3572,34.7788 L56.3921,35.7428 L56.3921,35.7428 Z M39.4119,29.6962 L39.4119,44.1733 L50.9074,55.6754 L62.4029,44.1719 L62.4029,29.7347 L58.2484,33.8885 C56.4921,32.1319 54.7364,30.3865 52.9792,28.6279 L50.8573,30.7529 C48.6326,32.5741 45.7372,29.7998 47.7015,27.5972 L49.7425,25.5531 L39.4119,15.2245 L39.4119,27.3756 L43.8174,31.7807 L44.4024,31.1951 C45.4399,30.3266 47.2784,31.6575 47.2731,32.9093 C48.0836,32.7794 49.3295,33.7014 49.2944,34.7455 C50.0434,34.7747 51.0759,35.56 51.0666,36.6046 C51.5145,36.6116 52.0476,36.8912 52.4231,37.33 L53.6166,38.5199 L50.9332,41.2028 L50.5012,40.7715 L50.0427,40.3136 C50.6173,39.7417 51.1909,39.1698 51.7682,38.5965 L50.9092,37.7373 L49.1848,39.4567 L48.2235,38.4965 C48.7984,37.9241 49.3724,37.3518 49.9502,36.778 L49.0222,35.8494 C48.4447,36.4236 47.8709,36.9964 47.2954,37.5697 L46.3438,36.6193 L48.0644,34.8913 L47.1614,33.9878 C46.5878,34.5672 46.0155,35.143 45.4433,35.7199 L44.4814,34.7593 C45.0574,34.1851 45.6325,33.6112 46.2103,33.0363 L45.3143,32.1367 L43.5874,33.8665 L39.4119,29.6962 L39.4119,29.6962 Z M37.812,42.5723 L37.812,28.0945 L31.569,21.8442 L31.188,22.2254 L31.188,35.9446 L37.812,42.5723 Z M29.5879,34.3436 L29.5879,23.8267 L24.3325,29.085 L29.5879,34.3436 Z M32.7239,20.6886 L37.812,25.776 L37.812,15.5978 L32.7239,20.6886 Z M39.9695,13.4389 L50.9074,24.3911 L61.853,13.4484 L50.9074,2.4947 L39.9695,13.4389 L39.9695,13.4389 Z M64.0028,15.5996 L64.0028,25.7676 L69.0868,20.6865 L64.0028,15.5996 Z M72.2269,23.8287 L72.2269,34.3414 L77.48,29.085 L72.2269,23.8287 L72.2269,23.8287 Z M70.6268,35.9426 L70.6268,22.2275 L70.2669,21.8676 L64.0028,28.1342 L64.0028,42.5711 L70.6268,35.9426 L70.6268,35.9426 Z M62.4029,15.2062 L48.8649,28.7605 C48.0716,29.4628 49.047,30.2967 49.693,29.5887 L52.8991,26.3821 L58.1439,31.6228 L62.4029,27.3663 L62.4029,15.2062 L62.4029,15.2062 Z M12.3848,74.8163 L17.1477,74.8163 L17.1477,72.2932 L12.3848,72.2932 L12.3848,74.8163 Z M23.6678,78.4875 C25.9185,78.4875 27.2111,77.4752 28.1695,76.1005 L26.0494,74.5292 C25.4396,75.2995 24.8151,75.8134 23.7551,75.8134 C22.3319,75.8134 21.3298,74.5745 21.3298,72.9883 C21.3298,71.417 22.3319,70.1629 23.7551,70.1629 C24.7277,70.1629 25.4106,70.6314 25.9913,71.3868 L28.0534,69.725 C27.1531,68.4256 25.8605,67.489 23.7842,67.489 C20.7055,67.489 18.4255,69.9062 18.4255,72.9883 C18.4255,76.1758 20.7638,78.4875 23.6678,78.4875 L23.6678,78.4875 Z M34.6023,78.4875 C37.7388,78.4875 40.0913,76.0247 40.0913,72.9883 C40.0913,69.9212 37.7678,67.489 34.6313,67.489 C31.4946,67.489 29.1423,69.9516 29.1423,72.9883 C29.1423,76.0551 31.4656,78.4875 34.6023,78.4875 Z M34.6313,75.8435 C33.092,75.8435 32.0321,74.514 32.0321,72.9883 C32.0321,71.4321 33.063,70.1327 34.6023,70.1327 C36.1561,70.1327 37.2161,71.4623 37.2161,72.9883 C37.2161,74.5441 36.1852,75.8435 34.6313,75.8435 Z M42.1243,78.2759 L44.9122,78.2759 L44.9122,72.4746 L49.2542,78.2759 L51.7229,78.2759 L51.7229,67.7006 L48.9347,67.7006 L48.9347,73.2903 L44.7526,67.7006 L42.1243,67.7006 L42.1243,78.2759 L42.1243,78.2759 Z M56.3696,78.2759 L59.1868,78.2759 L59.1868,70.2688 L62.2362,70.2688 L62.2362,67.7006 L53.3202,67.7006 L53.3202,70.2688 L56.3696,70.2688 L56.3696,78.2759 Z M63.5866,78.2759 L66.4036,78.2759 L66.4036,75.0732 L67.6381,75.0732 L69.6857,78.2759 L72.9385,78.2759 L70.5134,74.5897 C71.7767,74.0305 72.6044,72.9581 72.6044,71.3414 C72.6044,70.2688 72.2994,69.4531 71.7042,68.8336 C71.0216,68.1235 69.9471,67.7006 68.3933,67.7006 L63.5866,67.7006 L63.5866,78.2759 L63.5866,78.2759 Z M66.4036,72.7767 L66.4036,70.2386 L68.2482,70.2386 C69.192,70.2386 69.7727,70.6616 69.7727,71.4925 C69.7727,72.2932 69.221,72.7767 68.2627,72.7767 L66.4036,72.7767 Z M73.563,78.2759 L76.5253,78.2759 L77.2512,76.3873 L81.1721,76.3873 L81.9127,78.2759 L84.9331,78.2759 L80.6058,67.6249 L77.8903,67.6249 L73.563,78.2759 L73.563,78.2759 Z M78.0792,74.1062 L79.2262,71.0997 L80.3589,74.1062 L78.0792,74.1062 Z M90.4368,78.4875 C92.6876,78.4875 93.9799,77.4752 94.9383,76.1005 L92.8182,74.5292 C92.2084,75.2995 91.5839,75.8134 90.5239,75.8134 C89.1009,75.8134 88.0988,74.5745 88.0988,72.9883 C88.0988,71.417 89.1009,70.1629 90.5239,70.1629 C91.4968,70.1629 92.1794,70.6314 92.7601,71.3868 L94.8222,69.725 C93.9219,68.4256 92.6293,67.489 90.553,67.489 C87.4745,67.489 85.1946,69.9062 85.1946,72.9883 C85.1946,76.1758 87.5326,78.4875 90.4368,78.4875 L90.4368,78.4875 Z M99.0333,78.2759 L101.8505,78.2759 L101.8505,70.2688 L104.8999,70.2688 L104.8999,67.7006 L95.9839,67.7006 L95.9839,70.2688 L99.0333,70.2688 L99.0333,78.2759 Z" id="path4"></path>
        </g>
    </g>
</svg>