<?xml version="1.0" encoding="UTF-8"?>
<svg width="28px" height="19px" viewBox="0 0 28 19" version="1.1" xmlns="http://www.w3.org/2000/svg" xmlns:xlink="http://www.w3.org/1999/xlink">
    <title>email</title>
    <g id="Page-1" stroke="none" stroke-width="1" fill="none" fill-rule="evenodd">
        <g id="email" fill="#FFFFFF" fill-rule="nonzero">
            <path d="M25.2073864,0.0328721591 L2.42897727,0.0328721591 C1.0896392,0.0328721591 0,1.12251136 0,2.46184943 L0,16.5381506 C0,17.8774886 1.0896392,18.9671278 2.42897727,18.9671278 L25.2073864,18.9671278 C26.5467244,18.9671278 27.6363636,17.8774886 27.6363636,16.5381506 L27.6363636,2.46184943 C27.6363636,1.12251136 26.5467244,0.0328721591 25.2073864,0.0328721591 Z M24.8903778,1.65219034 L24.5661903,1.92213068 L14.781892,10.0695142 C14.2234432,10.5344744 13.4128125,10.5344744 12.8544716,10.0695142 L3.0701733,1.92213068 L2.7459858,1.65219034 L24.8903778,1.65219034 Z M1.61931818,2.82123011 L9.59132955,9.45951705 L1.61931818,14.7651051 L1.61931818,2.82123011 Z M25.2073864,17.3478097 L2.42897727,17.3478097 C2.03775,17.3478097 1.71053977,17.0688551 1.63556534,16.6994886 L10.8896989,10.5406278 L11.8183239,11.3139063 C12.3977159,11.7963551 13.1080028,12.0375795 13.8182358,12.0375795 C14.5284688,12.0375795 15.2387017,11.7963551 15.8181477,11.3139063 L16.7467727,10.5406278 L26.0008523,16.6994347 C25.9258239,17.0689091 25.5986136,17.3478097 25.2073864,17.3478097 Z M26.0170455,14.7651051 L18.0450341,9.45957102 L26.0170455,2.82123011 L26.0170455,14.7651051 Z" id="Shape"></path>
        </g>
    </g>
</svg>