<?xml version="1.0" encoding="UTF-8"?>
<svg width="512px" height="348px" viewBox="0 0 512 348" version="1.1" xmlns="http://www.w3.org/2000/svg" xmlns:xlink="http://www.w3.org/1999/xlink">
    <title>message-w</title>
    <g id="Page-1" stroke="none" stroke-width="1" fill="none" fill-rule="evenodd">
        <g id="message-w" fill="#B8C1CC" fill-rule="nonzero">
            <path d="M393.926,155.559 C393.926,62.057 295.364,0.769 196.963,0.769 C98.169,0.769 0,62.345 0,155.559 C0,190.824 15.445,225.309 43.491,252.663 C44.564,253.71 44.975,255.299 44.563,256.809 C35.754,289.08 14.89,318.232 6.329,329.268 C3.666,332.701 3.228,337.241 5.187,341.118 C7.102,344.909 10.888,347.231 15.118,347.231 C15.214,347.231 15.309,347.231 15.405,347.231 C57.298,346.183 105.857,334.359 135.873,304.849 C136.922,303.817 138.427,303.409 139.901,303.76 C158.343,308.134 177.542,310.351 196.963,310.351 C295.728,310.349 393.926,248.798 393.926,155.559 Z M143.362,289.163 C136.841,287.614 130.108,289.48 125.357,294.151 C95.34,323.664 46.325,330.373 23.122,331.864 C33.721,317.233 50.954,290.362 59.034,260.758 C60.881,253.992 58.938,246.776 53.964,241.924 C28.474,217.063 15,187.198 15,155.559 C15,78.479 96.628,15.769 196.963,15.769 C297.298,15.769 378.926,78.478 378.926,155.559 C378.926,232.64 297.298,295.349 196.963,295.349 C178.706,295.349 160.673,293.267 143.362,289.163 Z" id="Shape"></path>
            <path d="M442.165,280.18 C485.894,258.081 512,220.416 512,179.426 C512,121.495 459.633,71.995 387.482,61.724 C383.387,61.142 379.584,63.991 379.001,68.092 C378.417,72.193 381.268,75.99 385.369,76.574 C450.053,85.782 497,129.037 497,179.426 C497,214.638 473.972,247.299 435.399,266.793 C427.899,270.584 423.88,278.964 425.627,287.174 C429.284,304.359 437.069,320.272 443.296,331.058 C399.005,323.686 382.218,302.434 376.91,293.236 C373.633,287.558 367.505,284.038 360.892,284.038 C360.872,284.038 360.853,284.038 360.834,284.038 L360.284,284.039 C351.967,284.039 343.639,283.462 335.534,282.323 C331.443,281.748 327.64,284.605 327.064,288.707 C326.488,292.809 329.346,296.601 333.448,297.177 C342.242,298.412 351.271,299.038 360.284,299.038 L360.894,299.037 L360.905,299.037 C362.16,299.037 363.312,299.686 363.917,300.733 C384.23,335.936 430.925,344.924 450.058,347.154 C454.284,347.646 458.31,345.715 460.565,342.104 C462.814,338.501 462.786,334.041 460.49,330.464 C454.727,321.488 444.442,303.524 440.299,284.052 C439.968,282.496 440.735,280.903 442.165,280.18 L442.165,280.18 Z" id="Path"></path>
            <path d="M80.258,128.733 C65.925,128.733 54.265,140.394 54.265,154.726 C54.265,169.058 65.925,180.719 80.258,180.719 C94.591,180.719 106.251,169.058 106.251,154.726 C106.251,140.394 94.591,128.733 80.258,128.733 Z M80.258,165.72 C74.196,165.72 69.265,160.788 69.265,154.727 C69.265,148.666 74.197,143.734 80.258,143.734 C86.319,143.734 91.251,148.666 91.251,154.727 C91.251,160.788 86.319,165.72 80.258,165.72 Z" id="Shape"></path>
            <path d="M154.411,128.733 C140.078,128.733 128.418,140.394 128.418,154.726 C128.418,169.058 140.078,180.719 154.411,180.719 C168.744,180.719 180.404,169.058 180.404,154.726 C180.404,140.394 168.744,128.733 154.411,128.733 Z M154.411,165.72 C148.349,165.72 143.418,160.788 143.418,154.727 C143.418,148.666 148.35,143.734 154.411,143.734 C160.472,143.734 165.404,148.666 165.404,154.727 C165.404,160.788 160.473,165.72 154.411,165.72 Z" id="Shape"></path>
            <path d="M228.563,128.733 C214.23,128.733 202.57,140.394 202.57,154.726 C202.57,169.058 214.23,180.719 228.563,180.719 C242.896,180.719 254.556,169.058 254.556,154.726 C254.556,140.394 242.896,128.733 228.563,128.733 Z M228.563,165.72 C222.501,165.72 217.57,160.788 217.57,154.727 C217.57,148.666 222.502,143.734 228.563,143.734 C234.624,143.734 239.556,148.666 239.556,154.727 C239.556,160.788 234.625,165.72 228.563,165.72 Z" id="Shape"></path>
            <path d="M302.717,128.733 C288.384,128.733 276.724,140.394 276.724,154.726 C276.724,169.058 288.384,180.719 302.717,180.719 C317.05,180.719 328.71,169.058 328.71,154.726 C328.71,140.394 317.05,128.733 302.717,128.733 Z M302.717,165.72 C296.655,165.72 291.724,160.788 291.724,154.727 C291.724,148.666 296.656,143.734 302.717,143.734 C308.778,143.734 313.71,148.666 313.71,154.727 C313.71,160.788 308.778,165.72 302.717,165.72 Z" id="Shape"></path>
        </g>
    </g>
</svg>