<?xml version="1.0" encoding="UTF-8"?>
<svg width="541px" height="542px" viewBox="0 0 541 542" version="1.1" xmlns="http://www.w3.org/2000/svg" xmlns:xlink="http://www.w3.org/1999/xlink">
    <title>notification</title>
    <g id="Page-1" stroke="none" stroke-width="1" fill="none" fill-rule="evenodd">
        <g id="notification" transform="translate(14.000000, 14.000000)">
            <path d="M426,263.862 L426,216 C426,146.178 379.589,86.999 316,67.67 L316,46 C316,21.187 295.813,1 271,1 C246.187,1 226,21.187 226,46 L226,67.67 C162.41,86.999 116,146.177 116,216 L116,263.862 C116,325.194 92.622,383.35 50.173,427.618 C46.013,431.956 44.844,438.357 47.202,443.885 C49.56,449.413 54.99,453 61,453 L197.509,453 C204.477,487.192 234.781,513 271,513 C307.22,513 337.522,487.192 344.491,453 L481,453 C487.01,453 492.439,449.413 494.797,443.885 C497.155,438.357 495.986,431.956 491.827,427.618 C449.378,383.35 426,325.193 426,263.862 Z M256,46 C256,37.729 262.729,31 271,31 C279.271,31 286,37.729 286,46 L286,61.728 C281.063,61.252 276.06,61 271,61 C265.94,61 260.937,61.252 256,61.728 L256,46 Z M271,483 C251.445,483 234.772,470.459 228.58,453 L313.42,453 C307.228,470.459 290.555,483 271,483 L271,483 Z M93.33,423 C127.491,377.208 146,321.792 146,263.862 L146,216 C146,147.075 202.075,91 271,91 C339.925,91 396,147.075 396,216 L396,263.862 C396,321.792 414.509,377.208 448.671,423 L93.33,423 Z" id="Shape" fill-opacity="0.5" fill="#14355D" fill-rule="nonzero"></path>
            <path d="M466,216 C466,224.284 472.716,231 481,231 C489.284,231 496,224.284 496,216 C496,155.9 472.596,99.397 430.099,56.9 C424.242,51.043 414.744,51.042 408.886,56.9 C403.028,62.758 403.028,72.255 408.886,78.113 C445.717,114.944 466,163.913 466,216 L466,216 Z" id="Path" fill-opacity="0.5" fill="#14355D" fill-rule="nonzero"></path>
            <path d="M61,231 C69.284,231 76,224.284 76,216 C76,163.914 96.284,114.945 133.114,78.114 C138.972,72.256 138.972,62.759 133.114,56.901 C127.257,51.043 117.759,51.043 111.901,56.901 C69.404,99.398 46,155.9 46,216 C46,224.284 52.716,231 61,231 Z" id="Path" fill-opacity="0.5" fill="#14355D" fill-rule="nonzero"></path>
            <line x1="512" y1="1" x2="1" y2="513" id="Line" stroke="#14355D" stroke-width="30" stroke-linecap="round" stroke-linejoin="bevel"></line>
        </g>
    </g>
</svg>