<?xml version="1.0" encoding="UTF-8"?>
<svg width="450px" height="512px" viewBox="0 0 450 512" version="1.1" xmlns="http://www.w3.org/2000/svg" xmlns:xlink="http://www.w3.org/1999/xlink">
    <title>notification</title>
    <g id="Page-1" stroke="none" stroke-width="1" fill="none" fill-rule="evenodd">
        <g id="notification" fill="#14355D" fill-rule="nonzero">
            <path d="M380,262.862 L380,215 C380,145.178 333.589,85.999 270,66.67 L270,45 C270,20.187 249.813,0 225,0 C200.187,0 180,20.187 180,45 L180,66.67 C116.41,85.999 70,145.177 70,215 L70,262.862 C70,324.194 46.622,382.35 4.173,426.618 C0.013,430.956 -1.156,437.357 1.202,442.885 C3.56,448.413 8.99,452 15,452 L151.509,452 C158.477,486.192 188.781,512 225,512 C261.22,512 291.522,486.192 298.491,452 L435,452 C441.01,452 446.439,448.413 448.797,442.885 C451.155,437.357 449.986,430.956 445.827,426.618 C403.378,382.35 380,324.193 380,262.862 Z M210,45 C210,36.729 216.729,30 225,30 C233.271,30 240,36.729 240,45 L240,60.728 C235.063,60.252 230.06,60 225,60 C219.94,60 214.937,60.252 210,60.728 L210,45 Z M225,482 C205.445,482 188.772,469.459 182.58,452 L267.42,452 C261.228,469.459 244.555,482 225,482 L225,482 Z M47.33,422 C81.491,376.208 100,320.792 100,262.862 L100,215 C100,146.075 156.075,90 225,90 C293.925,90 350,146.075 350,215 L350,262.862 C350,320.792 368.509,376.208 402.671,422 L47.33,422 Z" id="Shape"></path>
            <path d="M420,215 C420,223.284 426.716,230 435,230 C443.284,230 450,223.284 450,215 C450,154.9 426.596,98.397 384.099,55.9 C378.242,50.043 368.744,50.042 362.886,55.9 C357.028,61.758 357.028,71.255 362.886,77.113 C399.717,113.944 420,162.913 420,215 L420,215 Z" id="Path"></path>
            <path d="M15,230 C23.284,230 30,223.284 30,215 C30,162.914 50.284,113.945 87.114,77.114 C92.972,71.256 92.972,61.759 87.114,55.901 C81.257,50.043 71.759,50.043 65.901,55.901 C23.404,98.398 1.42108547e-14,154.9 1.42108547e-14,215 C1.42108547e-14,223.284 6.716,230 15,230 Z" id="Path"></path>
        </g>
    </g>
</svg>