<?xml version="1.0" encoding="UTF-8"?>
<svg width="461px" height="511px" viewBox="0 0 461 511" version="1.1" xmlns="http://www.w3.org/2000/svg" xmlns:xlink="http://www.w3.org/1999/xlink">
    <title>paperclip</title>
    <g id="Page-1" stroke="none" stroke-width="1" fill="none" fill-rule="evenodd">
        <g id="paperclip" fill="#FFFFFF" fill-rule="nonzero">
            <path d="M427.828125,314.484375 L390.089844,276.746094 L220.273438,106.9375 C188.976562,75.875 138.457031,75.96875 107.277344,107.148438 C76.097656,138.328125 76.003906,188.847656 107.066406,220.144531 L276.875,390.003906 C283.820312,396.953125 295.085938,396.953125 302.035156,390.003906 C308.980469,383.054688 308.980469,371.792969 302.035156,364.84375 L132.226562,194.984375 C114.859375,177.617188 114.859375,149.464844 132.226562,132.097656 C149.59375,114.730469 177.746094,114.730469 195.113281,132.097656 L364.972656,301.90625 L402.710938,339.640625 C433.976562,370.917969 433.964844,421.617188 402.691406,452.878906 C371.414062,484.140625 320.71875,484.132812 289.453125,452.855469 L258.011719,421.402344 L81.910156,245.300781 L69.328125,232.722656 C25.351562,187.371094 25.910156,115.121094 70.578125,70.449219 C115.25,25.78125 187.5,25.222656 232.851562,69.199219 L421.53125,257.882812 C426.027344,262.375 432.578125,264.128906 438.714844,262.484375 C444.855469,260.839844 449.652344,256.046875 451.296875,249.90625 C452.941406,243.765625 451.183594,237.21875 446.691406,232.722656 L258.011719,44.042969 C198.921875,-14.777344 103.371094,-14.667969 44.417969,44.289062 C-14.539062,103.242188 -14.648438,198.792969 44.171875,257.882812 L232.851562,446.5625 L264.339844,478.015625 C309.75,521.632812 381.714844,520.90625 426.230469,476.375 C470.75,431.847656 471.457031,359.882812 427.828125,314.484375 L427.828125,314.484375 Z" id="Path"></path>
        </g>
    </g>
</svg>