<?xml version="1.0" encoding="UTF-8"?>
<svg width="24px" height="21px" viewBox="0 0 24 21" version="1.1" xmlns="http://www.w3.org/2000/svg" xmlns:xlink="http://www.w3.org/1999/xlink">
    <title>photo-camera</title>
    <g id="View" stroke="none" stroke-width="1" fill="none" fill-rule="evenodd">
        <g id="320" transform="translate(-17.000000, -1497.000000)" fill="#FFFFFF" fill-rule="nonzero">
            <g id="photo-camera" transform="translate(17.000000, 1497.000000)">
                <path d="M17.7727273,6.90909091 C17.2706364,6.90909091 16.8636364,7.31609091 16.8636364,7.81818182 C16.8636364,8.32027273 17.2706364,8.72727273 17.7727273,8.72727273 L18.7272727,8.72727273 C19.2293636,8.72727273 19.6363636,8.32027273 19.6363636,7.81818182 C19.6363636,7.31609091 19.2293636,6.90909091 18.7272727,6.90909091 L17.7727273,6.90909091 Z" id="Path"></path>
                <path d="M22.3636364,13.7272727 C22.8657273,13.7272727 23.2727273,13.3202727 23.2727273,12.8181818 L23.2727273,6.90909091 C23.2727273,4.904 21.6414545,3.27272727 19.6363636,3.27272727 L16.8926818,3.27272727 C16.5033636,3.27272727 16.1575,3.02509091 16.0320909,2.65663636 L15.7570455,1.8485 C15.3807273,0.742863636 14.3431364,0 13.1752273,0 L7.36745455,0 C6.22213636,0 5.19127273,0.723772727 4.80236364,1.80090909 L4.48759091,2.67240909 C4.35795455,3.0315 4.01431818,3.27272727 3.63254545,3.27272727 C3.63127273,3.27272727 3.63,3.27277273 3.62868182,3.27272727 C1.62713636,3.27690909 0,4.90654545 0,6.90909091 L0,17.3636364 C0,19.3687273 1.63127273,21 3.63636364,21 L19.6363636,21 C21.6414545,21 23.2727273,19.3687273 23.2727273,17.3636364 C23.2727273,16.8615455 22.8657273,16.4545455 22.3636364,16.4545455 C21.8615455,16.4545455 21.4545455,16.8615455 21.4545455,17.3636364 C21.4545455,18.3661818 20.6389091,19.1818182 19.6363636,19.1818182 L3.63636364,19.1818182 C2.63381818,19.1818182 1.81818182,18.3661818 1.81818182,17.3636364 L1.81818182,6.90909091 C1.81818182,5.90654545 2.63381818,5.09090909 3.63636364,5.09090909 C3.63822727,5.09095455 3.63995455,5.09095455 3.64177273,5.09090909 C4.78340909,5.08704545 5.80972727,4.36427273 6.19763636,3.29 L6.51240909,2.4185 C6.64204545,2.05940909 6.98568182,1.81818182 7.36745455,1.81818182 L13.1751818,1.81818182 C13.5645,1.81818182 13.9103182,2.06577273 14.0357727,2.43427273 L14.3108636,3.24245455 C14.6872273,4.34809091 15.7248182,5.09090909 16.8926818,5.09090909 L19.6363636,5.09090909 C20.6389091,5.09090909 21.4545455,5.90654545 21.4545455,6.90909091 L21.4545455,12.8181818 C21.4545455,13.3202727 21.8615455,13.7272727 22.3636364,13.7272727 Z" id="Path"></path>
                <path d="M10.0909091,6 C6.95795455,6 4.40909091,8.54886364 4.40909091,11.6818182 C4.40909091,14.8147727 6.95795455,17.3636364 10.0909091,17.3636364 C13.2238636,17.3636364 15.7727273,14.8147727 15.7727273,11.6818182 C15.7727273,8.54886364 13.2238636,6 10.0909091,6 Z M10.0909091,15.5454545 C7.9605,15.5454545 6.22727273,13.8122273 6.22727273,11.6818182 C6.22727273,9.55140909 7.9605,7.81818182 10.0909091,7.81818182 C12.2213182,7.81818182 13.9545455,9.55140909 13.9545455,11.6818182 C13.9545455,13.8122273 12.2213182,15.5454545 10.0909091,15.5454545 Z" id="Shape"></path>
            </g>
        </g>
    </g>
</svg>