<?xml version="1.0" encoding="UTF-8"?>
<svg width="512px" height="512px" viewBox="0 0 512 512" version="1.1" xmlns="http://www.w3.org/2000/svg" xmlns:xlink="http://www.w3.org/1999/xlink">
    <title>question</title>
    <g id="Page-1" stroke="none" stroke-width="1" fill="none" fill-rule="evenodd">
        <g id="question" fill="#506175" fill-rule="nonzero">
            <path d="M277.332031,384 C277.332031,395.78125 267.78125,405.332031 256,405.332031 C244.21875,405.332031 234.667969,395.78125 234.667969,384 C234.667969,372.21875 244.21875,362.667969 256,362.667969 C267.78125,362.667969 277.332031,372.21875 277.332031,384 Z" id="Path"></path>
            <path d="M256,512 C114.835938,512 0,397.164062 0,256 C0,114.835938 114.835938,0 256,0 C397.164062,0 512,114.835938 512,256 C512,397.164062 397.164062,512 256,512 Z M256,32 C132.480469,32 32,132.480469 32,256 C32,379.519531 132.480469,480 256,480 C379.519531,480 480,379.519531 480,256 C480,132.480469 379.519531,32 256,32 Z" id="Shape"></path>
            <path d="M256,314.667969 C247.167969,314.667969 240,307.5 240,298.667969 L240,277.121094 C240,256.8125 252.886719,238.613281 272.042969,231.851562 C297.535156,222.871094 314.667969,195.710938 314.667969,176 C314.667969,143.636719 288.363281,117.332031 256,117.332031 C223.636719,117.332031 197.332031,143.636719 197.332031,176 C197.332031,184.832031 190.164062,192 181.332031,192 C172.5,192 165.332031,184.832031 165.332031,176 C165.332031,126.015625 205.996094,85.332031 256,85.332031 C306.003906,85.332031 346.667969,126.015625 346.667969,176 C346.667969,211.585938 318.570312,249.367188 282.6875,262.039062 C276.289062,264.277344 272,270.355469 272,277.140625 L272,298.667969 C272,307.5 264.832031,314.667969 256,314.667969 L256,314.667969 Z" id="Path"></path>
        </g>
    </g>
</svg>