<?xml version="1.0" encoding="UTF-8"?>
<svg width="46px" height="45px" viewBox="0 0 46 45" version="1.1" xmlns="http://www.w3.org/2000/svg" xmlns:xlink="http://www.w3.org/1999/xlink">
    <title>-favourite-star</title>
    <g id="Page-1" stroke="none" stroke-width="1" fill="none" fill-rule="evenodd">
        <g id="-favourite-star" fill="#E60F6F" fill-rule="nonzero">
            <path d="M45.112,17.412 C44.876,16.554 44.073,15.944 43.182,15.944 C38.423,15.944 33.664,15.944 28.905,15.944 C27.545,11.759 26.185,7.574 24.826,3.389 C24.723,3.076 24.623,2.763 24.52,2.451 C24.518,2.446 24.515,2.442 24.514,2.436 C24.365,1.952 24.029,1.528 23.591,1.266 C23.582,1.26 23.573,1.253 23.564,1.248 C23.48,1.199 23.391,1.161 23.301,1.125 C23.264,1.11 23.229,1.094 23.191,1.082 C23.169,1.074 23.147,1.061 23.124,1.055 C23.079,1.043 23.036,1.042 22.992,1.033 C22.922,1.018 22.851,1.004 22.779,0.997 C22.725,0.992 22.673,0.992 22.619,0.990687624 C22.539,0.99 22.459,0.990687624 22.378,1 C22.333,1.005 22.29,1.014 22.246,1.022 C22.185,1.033 22.124,1.036 22.062,1.053 C22.029,1.062 22,1.079 21.968,1.09 C21.958,1.093 21.948,1.098 21.938,1.102 C21.336,1.316 20.859,1.83 20.672,2.435 C20.67,2.441 20.667,2.446 20.665,2.452 C19.203,6.95 17.743,11.448 16.28,15.945 C11.849,15.945 7.419,15.945 2.988,15.945 C2.659,15.945 2.331,15.945 2.002,15.945 C1.112,15.945 0.31,16.555 0.073,17.413 C-0.183,18.344 0.257,19.137 0.992,19.672 C4.789,22.43 8.585,25.188 12.382,27.946 C11.003,32.191 9.624,36.436 8.243,40.681 C8.142,40.993 8.04,41.306 7.938,41.619 C7.423,43.203 9.444,44.918 10.877,43.877 C14.783,41.039 18.688,38.202 22.594,35.364 C26.234,38.01 29.874,40.653 33.514,43.299 C33.78,43.491 34.045,43.684 34.311,43.877 C35.745,44.918 37.764,43.203 37.249,41.619 C35.769,37.06 34.286,32.503 32.805,27.944 C36.335,25.38 39.866,22.815 43.397,20.25 C43.663,20.057 43.928,19.864 44.194,19.67 C44.929,19.136 45.368,18.343 45.112,17.412 Z" id="Shape"></path>
        </g>
    </g>
</svg>