<?xml version="1.0" encoding="UTF-8"?>
<svg width="385px" height="385px" viewBox="0 0 385 385" version="1.1" xmlns="http://www.w3.org/2000/svg" xmlns:xlink="http://www.w3.org/1999/xlink">
    <title>refresh</title>
    <g id="Page-1" stroke="none" stroke-width="1" fill="none" fill-rule="evenodd">
        <g id="refresh" fill="#899AAE" fill-rule="nonzero">
            <polygon id="Path" points="170.774 106.707 170.774 213.374 262.081 267.56 277.441 241.747 202.774 197.374 202.774 106.707"></polygon>
            <path d="M384.107,0.04 L325.76,59.987 C250.987,-14.146 130.667,-14.146 55.893,59.987 C-18.987,134.12 -18.454,254.334 56.426,328.467 C131.306,402.6 252.906,402.6 327.786,328.467 C365.333,291.24 384.107,236.414 384.107,194.174 L341.333,194.174 C341.44,236.414 326.933,269.801 297.92,298.601 C239.68,356.308 145.387,356.308 87.147,298.601 C28.907,240.894 28.907,147.454 87.147,89.748 C145.387,32.042 239.68,34.175 297.92,91.881 L239.36,152.041 L384.107,152.041 L384.107,0.04 Z" id="Path"></path>
        </g>
    </g>
</svg>