<?xml version="1.0" encoding="UTF-8"?>
<svg width="193px" height="193px" viewBox="0 0 193 193" version="1.1" xmlns="http://www.w3.org/2000/svg" xmlns:xlink="http://www.w3.org/1999/xlink">
    <title>search</title>
    <g id="Page-1" stroke="none" stroke-width="1" fill="none" fill-rule="evenodd">
        <g id="320" transform="translate(-541.000000, -296.000000)" fill="#14355D" fill-rule="nonzero">
            <g id="Поиск-контрагента" transform="translate(215.000000, 166.000000)">
                <g id="search" transform="translate(326.000000, 130.000000)">
                    <path d="M190.707,180.101 L143.629,133.024 C155.331,118.952 162.381,100.882 162.381,81.193 C162.381,36.423 125.959,0 81.191,0 C36.422,0 0,36.423 0,81.193 C0,125.96 36.422,162.38 81.191,162.38 C100.879,162.38 118.95,155.331 133.022,143.629 L180.101,190.707 C181.565,192.172 183.485,192.904 185.404,192.904 C187.323,192.904 189.243,192.172 190.708,190.707 C193.637,187.778 193.637,183.03 190.707,180.101 Z M15,81.193 C15,44.694 44.693,15 81.191,15 C117.688,15 147.38,44.694 147.38,81.193 C147.38,117.689 117.688,147.38 81.191,147.38 C44.693,147.38 15,117.689 15,81.193 Z" id="Shape"></path>
                </g>
            </g>
        </g>
    </g>
</svg>