<?xml version="1.0" encoding="UTF-8"?>
<svg width="399px" height="512px" viewBox="0 0 399 512" version="1.1" xmlns="http://www.w3.org/2000/svg" xmlns:xlink="http://www.w3.org/1999/xlink">
    <title>trash</title>
    <g id="Page-1" stroke="none" stroke-width="1" fill="none" fill-rule="evenodd">
        <g id="trash" fill="#899AAE" fill-rule="nonzero">
            <path d="M156.371094,30.90625 L241.941406,30.90625 L241.941406,45.304688 L272.843751,45.304688 L272.843751,28.890625 C272.847656,12.960938 259.894531,0 243.972656,0 L154.339844,0 C138.417969,0 125.464844,12.960938 125.464844,28.890625 L125.464844,45.304688 L156.371094,45.304688 L156.371094,30.90625 Z" id="Path"></path>
            <path d="M344.210938,167.75 L54.101562,167.75 C46.152344,167.75 39.894531,174.53125 40.535156,182.457031 L64.789062,482.363281 C66.140625,499.105469 80.105469,512 96.882812,512 L301.425781,512 C318.203125,512 332.167969,499.105469 333.519531,482.359375 L357.773438,182.457031 C358.417969,174.53125 352.160156,167.75 344.210938,167.75 L344.210938,167.75 Z M124.347656,480.011719 C124.023438,480.03125 123.699219,480.042969 123.378906,480.042969 C115.277344,480.042969 108.476562,473.734375 107.972656,465.539062 L92.773438,219.332031 C92.25,210.8125 98.730469,203.480469 107.246094,202.957031 C115.734375,202.441406 123.097656,208.90625 123.621094,217.429688 L138.816406,463.636719 C139.34375,472.15625 132.863281,479.484375 124.347656,480.011719 L124.347656,480.011719 Z M214.78125,464.589844 C214.78125,473.121094 207.863281,480.039062 199.328125,480.039062 C190.792969,480.039062 183.875,473.121094 183.875,464.589844 L183.875,218.378906 C183.875,209.84375 190.792969,202.925781 199.328125,202.925781 C207.859375,202.925781 214.78125,209.84375 214.78125,218.378906 L214.78125,464.589844 Z M305.539062,219.289062 L291.027344,465.496094 C290.546875,473.707031 283.734375,480.039062 275.617188,480.039062 C275.3125,480.039062 275.003906,480.03125 274.695312,480.015625 C266.175781,479.511719 259.675781,472.199219 260.179688,463.679688 L274.6875,217.46875 C275.1875,208.949219 282.476562,202.449219 291.019531,202.953125 C299.539062,203.453125 306.039062,210.769531 305.539062,219.289062 L305.539062,219.289062 Z" id="Shape"></path>
            <path d="M397.648438,120.0625 L387.5,89.640625 C384.824219,81.621094 377.316406,76.210938 368.859375,76.210938 L29.449219,76.210938 C20.996094,76.210938 13.484375,81.621094 10.8125,89.640625 L0.664062,120.0625 C-1.292969,125.929688 1.253906,131.914062 6.007812,134.898438 C7.945312,136.113281 10.238281,136.84375 12.757812,136.84375 L385.554688,136.84375 C388.074219,136.84375 390.371094,136.113281 392.304688,134.894531 C397.058594,131.910156 399.605469,125.925781 397.648438,120.0625 Z" id="Path"></path>
        </g>
    </g>
</svg>