<?xml version="1.0" encoding="UTF-8"?>
<svg width="363px" height="408px" viewBox="0 0 363 408" version="1.1" xmlns="http://www.w3.org/2000/svg" xmlns:xlink="http://www.w3.org/1999/xlink">
    <title>trash-black</title>
    <g id="Page-1" stroke="none" stroke-width="1" fill="none" fill-rule="evenodd">
        <g id="trash-black" fill="#899AAE" fill-rule="nonzero">
            <path d="M313.94,114.944 L49.581,114.944 C46.721,114.701 43.887,115.646 41.744,117.556 C39.637,119.58 38.661,122.51 39.132,125.393 L66.299,362.062 C69.485,388.155 91.735,407.709 118.021,407.515 L249.678,407.515 C276.704,407.9 299.469,387.411 301.923,360.495 L324.388,124.348 C324.527,121.815 323.577,119.343 321.776,117.556 C319.634,115.646 316.8,114.701 313.94,114.944 Z M281.026,359.45 C279.384,375.359 265.66,387.253 249.679,386.617 L118.022,386.617 C102.328,387.254 88.838,375.593 87.197,359.972 L61.075,135.842 L302.446,135.842 L281.026,359.45 Z" id="Shape"></path>
            <path d="M352.079,47.026 L244.454,47.026 L244.454,30.307 C245.034,14.159 232.414,0.599 216.266,0.019 C215.736,-0.00011231188 215.205,-0.005 214.675,0.005 L148.846,0.005 C132.69,-0.294 119.352,12.56 119.053,28.716 C119.043,29.246 119.048,29.777 119.067,30.307 L119.067,47.025 L11.442,47.025 C5.671,47.025 0.993,51.703 0.993,57.474 C0.993,63.245 5.671,67.923 11.442,67.923 L352.079,67.923 C357.85,67.923 362.528,63.245 362.528,57.474 C362.528,51.703 357.849,47.026 352.079,47.026 Z M223.556,30.307 L223.556,47.025 L139.964,47.025 L139.964,30.307 C139.375,25.728 142.61,21.539 147.189,20.95 C147.738,20.879 148.293,20.864 148.845,20.903 L214.674,20.903 C219.279,20.577 223.277,24.045 223.603,28.651 C223.643,29.203 223.627,29.758 223.556,30.307 Z" id="Shape"></path>
        </g>
    </g>
</svg>